control3min_grf.mot
version=1
nRows=10
nColumns 19
inDegrees=yes
endheader
time	1_ground_force_vx	1_ground_force_vy	1_ground_force_vz	1_ground_force_px	1_ground_force_py	1_ground_force_pz	1_ground_torque_x	1_ground_torque_y	1_ground_torque_z	2_ground_force_vx	2_ground_force_vy	2_ground_force_vz	2_ground_force_px	2_ground_force_py	2_ground_force_pz	2_ground_torque_x	2_ground_torque_y	2_ground_torque_z
            3.751500	            0.000284	           -3.424458	           -0.152254	           -0.233013	            0.005581	           -0.255695	           -0.574775	           -0.137155	           -0.375001	           -0.182377	           -1.292728	            0.840186	           -0.232311	            0.006130	           -0.833667	           -0.337701	           -0.124039	           -0.019145
            3.752000	           -0.000205	           -3.243406	           -0.334905	           -0.233013	            0.005581	           -0.255695	           -0.454064	           -0.137783	           -0.224925	           -0.085998	           -2.029150	            0.884446	           -0.232311	            0.006130	           -0.833667	           -0.300166	           -0.105267	            0.056307
            3.752500	           -0.274643	           -4.145574	           -0.154663	           -0.233013	            0.005581	           -0.255695	           -0.498848	           -0.054802	           -0.217357	            0.147525	           -1.843654	            0.744219	           -0.232311	            0.006130	           -0.833667	           -0.300319	           -0.067321	            0.018742
            3.753000	            0.000430	           -3.604920	           -0.107171	           -0.233013	            0.005581	           -0.255695	           -0.463746	            0.102712	           -0.261454	           -0.229309	           -1.292227	            0.652494	           -0.232311	            0.006130	           -0.833667	           -0.281397	           -0.105064	            0.018599
            3.753500	            0.092086	           -4.686103	           -0.203748	           -0.233013	            0.005581	           -0.255695	           -0.440327	            0.185866	           -0.238409	            0.051831	           -1.291547	            0.746230	           -0.232311	            0.006130	           -0.833667	           -0.300386	           -0.057600	           -0.056625
            3.754000	            0.045866	           -3.243790	           -0.243307	           -0.233013	            0.005581	           -0.255695	           -0.570741	            0.111951	           -0.259206	            0.007099	           -1.845165	            1.025848	           -0.232311	            0.006130	           -0.833667	           -0.300267	           -0.086092	           -0.019026
            3.754500	           -0.136853	           -4.326206	           -0.064066	           -0.233013	            0.005581	           -0.255695	           -0.427584	           -0.063885	           -0.230500	            0.100757	           -1.844492	            0.931952	           -0.232311	            0.006130	           -0.833667	           -0.356564	           -0.095950	            0.037515
            3.755000	           -0.136886	           -4.145940	           -0.063293	           -0.233013	            0.005581	           -0.255695	           -0.465088	           -0.156568	           -0.174416	            0.285560	           -1.107724	            1.075284	           -0.232311	            0.006130	           -0.833667	           -0.394277	           -0.076575	           -0.132053
            3.755500	           -0.000058	           -3.423868	           -0.289822	           -0.233013	            0.005581	           -0.255695	           -0.512310	           -0.156119	           -0.262449	           -0.039128	           -2.029148	            0.931354	           -0.232311	            0.006130	           -0.833667	           -0.356681	           -0.085825	           -0.150953
            3.756000	           -0.228491	           -3.965889	           -0.016436	           -0.233013	            0.005581	           -0.255695	           -0.448605	           -0.036118	           -0.253049	           -0.041869	           -1.291885	            0.746270	           -0.232311	            0.006130	           -0.833667	           -0.338075	           -0.029243	           -0.094208
